<svg xmlns="http://www.w3.org/2000/svg" viewBox="0 0 2000 196.58"><defs><style>.cls-1{fill:#fff;}</style></defs><title>Asset 1</title><g id="Layer_2" data-name="Layer 2"><g id="Layer_1-2" data-name="Layer 1"><path class="cls-1" d="M1985,141.14a15.22,15.22,0,1,1-14.77,15.19A15,15,0,0,1,1985,141.14Zm0,28.17c7.12,0,12.56-5.65,12.56-13A12.57,12.57,0,0,0,1985,143.4c-7,0-12.3,5.69-12.3,12.93S1978.06,169.31,1985,169.31Zm-4.94-21.14h5.82a4.63,4.63,0,0,1,4.9,4.86,4.27,4.27,0,0,1-3.06,4.31v.08a6.87,6.87,0,0,1,.55.92l3.14,6.16h-2.6l-3.26-6.62h-3.14v6.62h-2.35Zm5.4,7.87a2.74,2.74,0,0,0,2.89-3,2.66,2.66,0,0,0-2.89-2.89h-3V156Z"/><path class="cls-1" d="M185.53,8.28,163.77,0,118.91,5.44V63.2l-41.39,5v35.6l-41.39,5V161.4l.41.16c1.69.67,3.32,1.23,5,1.71l.85.25V114.38l35.16-4.27v55.24l.74-.09a141.28,141.28,0,0,0,24.37-5.44l.46-.15-.34-48-19-7.28V73.75l35.16-4.27V153.7l.93-.41c5.15-2.28,10.2-4.8,15-7.5,3.07-1.73,6.2-3.63,9.28-5.65l.3-.2-.28-68.88-19-7.28V11L160.3,6.7V128l1.09-1a139.12,139.12,0,0,0,24.28-26.87l.11-.16Z"/><path class="cls-1" d="M31.36,104.64l9-1.09a63,63,0,0,1,4.07-6.87c9.39-14,24-27.64,42.92-38.59A177.13,177.13,0,0,1,114.15,46v-18A183.59,183.59,0,0,0,75.07,44.12c-53.63,30.6-70.56,75-56.22,101.48,2.23,4.11,7.37,9.32,12.51,12.62Z"/><path class="cls-1" d="M220,46.66c-5.72-11.36-16.32-19.09-29.67-23.56l0,9a41.84,41.84,0,0,1,7.56,9.57c9.43,16.42,6.66,34.62-3.3,55.17-8.23,17-29.8,41.68-59.63,58.43-53.4,30-111.34,28.53-129.81-3.92A42.66,42.66,0,0,1,.29,137.69c-1.07,11,.79,21.47,6,30.59,20.48,36,84.9,37.9,143.94,4.35C201.32,143.58,241.92,90.24,220,46.66Z"/><path class="cls-1" d="M354.63,144.05c-.13.15-12.33,15.23-35.54,15.23-26.39,0-45.55-19.72-45.55-46.89,0-27.43,19.16-47.33,45.55-47.33A46.65,46.65,0,0,1,351.58,78.6l1.84,2.05L362,69.41,360.83,68c-.58-.68-14.41-16.68-41.74-16.68-34.16,0-59.92,26.25-59.92,61.05,0,35.11,25.2,60.59,59.92,60.59,28.45,0,43.36-17.49,44-18.24l1.06-1.27-7.51-11.94Z"/><path class="cls-1" d="M436,51.34c-33.73,0-60.15,26.43-60.15,60.16C375.8,146,402.22,173,436,173s60.15-27,60.15-61.48C496.1,77.77,469.68,51.34,436,51.34Zm0,107.94c-25.66,0-45.77-21-45.77-47.78,0-26,20.11-46.44,45.77-46.44s45.77,20.4,45.77,46.44C481.72,138.29,461.62,159.28,436,159.28Z"/><path class="cls-1" d="M571,51.34c-23.06,0-37.47,13.34-44.65,23.9V54H512.4V170.31h13.94v-56.8a52.93,52.93,0,0,1,1.71-14.6C533.4,79,551.06,65.06,571,65.06c21.09,0,25.21,13,25.21,35.48v69.77h13.93V97.2C610.13,75.85,605.68,51.34,571,51.34Z"/><path class="cls-1" d="M672.9,105.59C658.7,100,646.43,95.2,646.43,83.12c0-13.32,11.87-18.06,23-18.06,17.63,0,26.36,9.62,26.45,9.72l1.86,2.13,8.34-11.33-1.17-1.37c-.45-.52-11.23-12.87-34.81-12.87-26.27,0-38,16.3-38,32.44,0,20.9,18.61,28.21,35,34.65,14.18,5.56,26.42,10.36,26.42,22.12,0,12.94-11.77,18.73-23.43,18.73A46.88,46.88,0,0,1,637.13,146l-1.74-2-8.95,10.61,1.22,1.46c.57.69,14.4,16.9,42.19,16.9,22,0,38-13.64,38-32.43C707.88,119.32,689.3,112,672.9,105.59Z"/><path class="cls-1" d="M740.43,23H726.5V127.58c0,39.37,26.44,43.62,37.81,43.62a34.86,34.86,0,0,0,6-.49l1.83-.37V157l-2.75.59a25.16,25.16,0,0,1-4.66.39c-9.08,0-24.32-4-24.32-31V67.06h31.74V54H740.43Z"/><path class="cls-1" d="M837.75,53.14c-13.43,0-25.4,8-33,21.6V54H790.79V170.31h13.93V119.77A77.23,77.23,0,0,1,808,97c2.66-8.92,11-29.66,31.12-29.66a33.1,33.1,0,0,1,4.77.42l2.65.43V54.24l-1.8-.39A37.76,37.76,0,0,0,837.75,53.14Z"/><path class="cls-1" d="M945.49,110.82c0,23.82-16.28,48.46-43.53,48.46-21.09,0-25.22-13-25.22-35.49V54H862.81v73.11c0,31.71,12.07,45.84,39.15,45.84,22.32,0,36.43-13.27,43.53-23.82v21.15h13.93V54H945.49Z"/><path class="cls-1" d="M1071.19,144.05c-.12.15-12.32,15.23-35.54,15.23-26.39,0-45.55-19.72-45.55-46.89,0-27.43,19.16-47.33,45.55-47.33a46.65,46.65,0,0,1,32.49,13.54l1.84,2,8.59-11.23L1077.39,68c-.58-.68-14.4-16.68-41.74-16.68-34.16,0-59.92,26.25-59.92,61.05,0,35.11,25.2,60.59,59.92,60.59,28.45,0,43.37-17.49,44-18.24l1-1.27-7.5-11.94Z"/><path class="cls-1" d="M1142.66,67.06V54h-31.73V23H1097V127.58c0,39.37,26.43,43.62,37.8,43.62a34.72,34.72,0,0,0,6-.49l1.83-.37V157l-2.75.59a25.11,25.11,0,0,1-4.65.39c-9.09,0-24.32-4-24.32-31V67.06Z"/><path class="cls-1" d="M1251.56,130.85c-.13.13-13.18,13.18-30.36,13.18-20.69,0-31.52-16-31.52-31.74,0-18.15,12.9-31.31,30.66-31.31,15.8,0,26.57,10.9,26.68,11l2.35,2.42,14.93-23.19-1.25-1.51c-.59-.7-14.69-17.31-44.21-17.31-36.07,0-62.25,25.28-62.25,60.1s26.18,60.1,62.25,60.1c30.32,0,46.5-18,47.17-18.76l1.24-1.4-13.17-24.16Z"/><path class="cls-1" d="M1331.07,52.4c-35.86,0-62.9,25.84-62.9,60.1s27.14,60.1,63.11,60.1,62.9-25.84,62.9-60.1S1367,52.4,1331.07,52.4Zm30,60.1c0,18-12.81,31.53-29.81,31.53s-30-13.56-30-31.53,12.91-31.52,30-31.52S1361.09,94.53,1361.09,112.5Z"/><path class="cls-1" d="M1473.19,52.26c-18.86,0-30.18,9.18-36.26,16.61V55.06h-31.58V169.88H1438v-53a43.17,43.17,0,0,1,1.82-13.84c3.93-12.63,14.24-20.48,26.91-20.48,10.61,0,14.75,5.52,14.75,19.69v67.63h32.44V96.66C1513.93,67.2,1500.22,52.26,1473.19,52.26Z"/><path class="cls-1" d="M1600.55,52.26c-18.86,0-30.18,9.18-36.25,16.61V55.06h-31.59V169.88h32.66v-53a43.17,43.17,0,0,1,1.82-13.84c3.93-12.63,14.25-20.48,26.91-20.48,10.75,0,14.75,5.34,14.75,19.69v67.63h32.45V96.66C1641.3,67.2,1627.59,52.26,1600.55,52.26Z"/><path class="cls-1" d="M1871.89,130.85c-.13.13-13.18,13.18-30.36,13.18-20.69,0-31.52-16-31.52-31.74,0-18.15,12.9-31.31,30.66-31.31,15.8,0,26.58,10.9,26.69,11l2.35,2.42,14.92-23.19-1.25-1.51c-.58-.7-14.69-17.31-44.21-17.31-36.07,0-62.25,25.28-62.25,60.1s26.18,60.1,62.25,60.1c30.33,0,46.5-18,47.17-18.76l1.24-1.4-13.16-24.16Z"/><path class="cls-1" d="M1954.31,140.17l-3.24.69a22.17,22.17,0,0,1-4.37.37c-7.11,0-19-2.33-19-18V82.13h26.66V55.06h-26.66V23.14h-32L1895,126.7c0,39.68,33.76,44,48.27,44a50.24,50.24,0,0,0,8.91-.7l2.15-.43Z"/><path class="cls-1" d="M1710.89,52.31c-34.4,0-58.42,24.73-58.42,60.14,0,34.85,25.93,60.15,61.66,60.15,28.09,0,45.25-15.76,46-16.43l1.39-1.3-13-24-2.32,2c-.13.12-13.6,11.51-30.15,11.51-12.39,0-27.34-6.41-30.25-24.23h79.12l.19-2.25c0-.31.66-7.5.66-10.81C1765.79,75.33,1742.7,52.31,1710.89,52.31ZM1687,96.38c3.1-11.46,11.44-18,23.27-18,10.13,0,21,6.28,22.74,18Z"/></g></g></svg>